<mxfile host="app.diagrams.net" modified="2023-11-12T11:12:40.019Z" agent="Mozilla/5.0 (Windows NT 10.0; Win64; x64) AppleWebKit/537.36 (KHTML, like Gecko) Chrome/119.0.0.0 Safari/537.36" etag="7czBSMvA13EycIQwnAky" version="22.0.0" type="device">
  <diagram name="PÃ¡gina-1" id="GNBb4wfl4goKeh-FZCjQ">
    <mxGraphModel dx="2288" dy="608" grid="1" gridSize="10" guides="1" tooltips="1" connect="1" arrows="1" fold="1" page="1" pageScale="1" pageWidth="827" pageHeight="1169" math="0" shadow="0">
      <root>
        <mxCell id="0" />
        <mxCell id="1" parent="0" />
        <mxCell id="up160wDCQszO7I89tvWv-2" value="Graphql Endpoint" style="rounded=0;whiteSpace=wrap;html=1;" vertex="1" parent="1">
          <mxGeometry x="70" y="220" width="120" height="60" as="geometry" />
        </mxCell>
        <mxCell id="up160wDCQszO7I89tvWv-3" value="Scheduler" style="rounded=0;whiteSpace=wrap;html=1;" vertex="1" parent="1">
          <mxGeometry x="70" y="310" width="120" height="60" as="geometry" />
        </mxCell>
        <mxCell id="up160wDCQszO7I89tvWv-5" value="Input Channel Instances" style="rounded=0;whiteSpace=wrap;html=1;" vertex="1" parent="1">
          <mxGeometry x="70" y="400" width="120" height="60" as="geometry" />
        </mxCell>
        <mxCell id="up160wDCQszO7I89tvWv-6" value="Front End Web App" style="rounded=0;whiteSpace=wrap;html=1;" vertex="1" parent="1">
          <mxGeometry x="-120" y="220" width="120" height="60" as="geometry" />
        </mxCell>
        <mxCell id="up160wDCQszO7I89tvWv-17" style="edgeStyle=orthogonalEdgeStyle;rounded=0;orthogonalLoop=1;jettySize=auto;html=1;" edge="1" parent="1" source="up160wDCQszO7I89tvWv-7" target="up160wDCQszO7I89tvWv-9">
          <mxGeometry relative="1" as="geometry" />
        </mxCell>
        <mxCell id="up160wDCQszO7I89tvWv-7" value="Scheduler Service" style="rounded=0;whiteSpace=wrap;html=1;" vertex="1" parent="1">
          <mxGeometry x="272" y="309" width="120" height="60" as="geometry" />
        </mxCell>
        <mxCell id="up160wDCQszO7I89tvWv-8" value="Database" style="shape=cylinder3;whiteSpace=wrap;html=1;boundedLbl=1;backgroundOutline=1;size=15;" vertex="1" parent="1">
          <mxGeometry x="282" y="100" width="100" height="110" as="geometry" />
        </mxCell>
        <mxCell id="up160wDCQszO7I89tvWv-18" style="edgeStyle=orthogonalEdgeStyle;rounded=0;orthogonalLoop=1;jettySize=auto;html=1;" edge="1" parent="1" source="up160wDCQszO7I89tvWv-9">
          <mxGeometry relative="1" as="geometry">
            <mxPoint x="660" y="339" as="targetPoint" />
          </mxGeometry>
        </mxCell>
        <mxCell id="up160wDCQszO7I89tvWv-9" value="Operator adapters" style="rounded=0;whiteSpace=wrap;html=1;" vertex="1" parent="1">
          <mxGeometry x="470" y="309" width="120" height="60" as="geometry" />
        </mxCell>
        <mxCell id="up160wDCQszO7I89tvWv-10" value="Operators" style="swimlane;whiteSpace=wrap;html=1;" vertex="1" parent="1">
          <mxGeometry x="660" y="230" width="250" height="200" as="geometry" />
        </mxCell>
        <mxCell id="up160wDCQszO7I89tvWv-19" value="" style="rounded=0;whiteSpace=wrap;html=1;" vertex="1" parent="up160wDCQszO7I89tvWv-10">
          <mxGeometry x="47" y="58" width="120" height="60" as="geometry" />
        </mxCell>
        <mxCell id="up160wDCQszO7I89tvWv-11" value="" style="endArrow=none;dashed=1;html=1;rounded=0;entryX=1;entryY=0.5;entryDx=0;entryDy=0;" edge="1" parent="1" source="up160wDCQszO7I89tvWv-2" target="up160wDCQszO7I89tvWv-6">
          <mxGeometry width="50" height="50" relative="1" as="geometry">
            <mxPoint x="-170" y="450" as="sourcePoint" />
            <mxPoint x="-120" y="400" as="targetPoint" />
          </mxGeometry>
        </mxCell>
        <mxCell id="up160wDCQszO7I89tvWv-14" value="" style="endArrow=classic;html=1;rounded=0;exitX=1.028;exitY=0.628;exitDx=0;exitDy=0;exitPerimeter=0;entryX=0;entryY=0.5;entryDx=0;entryDy=0;" edge="1" parent="1" source="up160wDCQszO7I89tvWv-2" target="up160wDCQszO7I89tvWv-7">
          <mxGeometry width="50" height="50" relative="1" as="geometry">
            <mxPoint x="240" y="500" as="sourcePoint" />
            <mxPoint x="290" y="450" as="targetPoint" />
          </mxGeometry>
        </mxCell>
        <mxCell id="up160wDCQszO7I89tvWv-15" value="" style="endArrow=classic;html=1;rounded=0;exitX=1;exitY=0.5;exitDx=0;exitDy=0;" edge="1" parent="1" source="up160wDCQszO7I89tvWv-3" target="up160wDCQszO7I89tvWv-7">
          <mxGeometry width="50" height="50" relative="1" as="geometry">
            <mxPoint x="200" y="500" as="sourcePoint" />
            <mxPoint x="250" y="450" as="targetPoint" />
          </mxGeometry>
        </mxCell>
        <mxCell id="up160wDCQszO7I89tvWv-16" value="" style="endArrow=classic;html=1;rounded=0;entryX=0;entryY=0.5;entryDx=0;entryDy=0;exitX=1;exitY=0.5;exitDx=0;exitDy=0;" edge="1" parent="1" source="up160wDCQszO7I89tvWv-5" target="up160wDCQszO7I89tvWv-7">
          <mxGeometry width="50" height="50" relative="1" as="geometry">
            <mxPoint x="190" y="480" as="sourcePoint" />
            <mxPoint x="260.71067811865476" y="430" as="targetPoint" />
          </mxGeometry>
        </mxCell>
        <mxCell id="up160wDCQszO7I89tvWv-20" value="" style="rounded=0;whiteSpace=wrap;html=1;" vertex="1" parent="1">
          <mxGeometry x="717" y="298" width="120" height="60" as="geometry" />
        </mxCell>
        <mxCell id="up160wDCQszO7I89tvWv-21" value="" style="rounded=0;whiteSpace=wrap;html=1;" vertex="1" parent="1">
          <mxGeometry x="727" y="308" width="120" height="60" as="geometry" />
        </mxCell>
        <mxCell id="up160wDCQszO7I89tvWv-22" value="" style="rounded=0;whiteSpace=wrap;html=1;" vertex="1" parent="1">
          <mxGeometry x="737" y="318" width="120" height="60" as="geometry" />
        </mxCell>
        <mxCell id="up160wDCQszO7I89tvWv-23" value="Impl" style="rounded=0;whiteSpace=wrap;html=1;" vertex="1" parent="1">
          <mxGeometry x="747" y="328" width="120" height="60" as="geometry" />
        </mxCell>
        <mxCell id="up160wDCQszO7I89tvWv-24" value="" style="endArrow=classic;startArrow=classic;html=1;rounded=0;entryX=0.5;entryY=1;entryDx=0;entryDy=0;entryPerimeter=0;exitX=0.5;exitY=0;exitDx=0;exitDy=0;" edge="1" parent="1" source="up160wDCQszO7I89tvWv-7" target="up160wDCQszO7I89tvWv-8">
          <mxGeometry width="50" height="50" relative="1" as="geometry">
            <mxPoint x="210" y="190" as="sourcePoint" />
            <mxPoint x="260" y="140" as="targetPoint" />
          </mxGeometry>
        </mxCell>
        <mxCell id="up160wDCQszO7I89tvWv-25" value="Channels" style="swimlane;whiteSpace=wrap;html=1;" vertex="1" parent="1">
          <mxGeometry x="30" y="160" width="200" height="340" as="geometry" />
        </mxCell>
      </root>
    </mxGraphModel>
  </diagram>
</mxfile>
